<svg xmlns="http://www.w3.org/2000/svg" width="16" height="16" viewBox="0 0 16 16">
  <rect width="16" height="16" fill="#ffffff"/>
  <g transform="translate(2.000 3.161) scale(0.38710)">
    <path d="M25.8639 14.9239C28.6201 14.9239 30.8547 17.1584 30.8547 19.9146C30.8547 22.6547 28.6344 24.875 25.8943 24.875H2.44636V21.4812H25.8854C26.7552 21.4812 27.4608 20.7756 27.4608 19.9057V19.8914C27.4608 19.0215 26.7552 18.3159 25.8854 18.3159H5.22217C2.81254 18.3159 0.858398 16.3618 0.858398 13.9522C0.858398 12.6678 1.42642 11.4496 2.41064 10.6226L12.928 1.80039C14.9983 0.0623772 18.0188 0.0677361 20.0855 1.80932L30.8618 10.9245L28.6808 13.5252L17.824 4.394C17.0399 3.73667 15.8985 3.73667 15.1143 4.394L4.59342 13.2234C4.37549 13.4056 4.25046 13.6753 4.25046 13.9593V13.9646C4.25046 14.4952 4.68094 14.9239 5.20967 14.9239H25.8639Z" fill="#0D0E1F"/>
  </g>
</svg>
