<svg xmlns="http://www.w3.org/2000/svg" width="132" height="29" viewBox="0 0 132 29" fill="none">
  <path d="M41.1395 22.2102H46.2198C46.2829 23.8099 47.9553 24.6737 49.817 24.6737C51.6787 24.6737 53.3511 23.9379 53.3511 22.3702C53.3826 20.6746 52.0889 20.3227 49.5961 19.8108L47.4504 19.2989C44.011 18.563 41.5498 16.9634 41.5498 13.5401C41.5498 9.7649 45.3047 7.39737 49.7223 7.39737C54.5186 7.39737 57.8633 9.82886 57.9895 13.1242H53.004C52.8777 11.7164 51.4578 10.8846 49.7223 10.8846C47.9868 10.8846 46.5669 11.5885 46.5669 12.9962C46.5669 14.5319 48.05 14.8838 49.6592 15.2677L51.8049 15.7796C55.7492 16.6754 58.3366 17.9551 58.3366 21.8903C58.3366 25.8255 54.4239 28.225 49.6277 28.225C44.8314 28.225 41.2973 26.0495 41.1395 22.2102Z" fill="#0D0E1F"/>
  <path d="M60.2935 21.9221C60.2935 17.1871 64.9635 16.1953 69.192 15.4914L70.5483 15.2355C72.2211 14.9156 72.9782 14.6916 72.9782 13.4758C72.9782 12.1001 71.7161 11.1403 69.7598 11.1403C67.8034 11.1403 66.5413 11.7802 66.3519 13.2199H61.0508C61.1139 9.63664 64.9951 7.4611 69.8227 7.4611C73.0096 7.4611 75.4709 8.16493 76.8594 10.0205C77.6801 11.1084 78.1215 12.708 78.1215 14.4996V24.7055C78.1215 25.5373 78.1215 26.945 78.4372 27.5209V27.6808H73.3568L73.2939 26.0172H73.231C72.5996 26.913 70.5169 28.1608 67.5826 28.1608C63.449 28.1608 60.3251 25.6972 60.3251 21.9541L60.2935 21.9221ZM73.136 20.6743V17.571L69.9805 18.5628L68.4342 18.9787C66.6044 19.5226 65.4684 20.2584 65.4684 21.7301C65.4684 23.2018 66.7306 24.3856 68.7499 24.3856C71.0533 24.3856 73.1046 23.2338 73.1046 20.6743H73.136Z" fill="#0D0E1F"/>
  <path d="M86.7975 25.3779H86.7339V27.6493H81.6221V0.775002H86.7339V10.085H86.7975C87.7438 8.61339 89.858 7.39761 92.5086 7.39761C97.6518 7.39761 101.439 11.3968 101.439 17.7954C101.439 24.1941 97.7783 28.1613 92.6664 28.1613C89.7952 28.1613 87.681 26.8495 86.7975 25.3458V25.3779ZM96.2319 17.8274C96.2319 13.6683 94.307 11.4288 91.3729 11.4288C88.4381 11.4288 86.4818 13.7003 86.4818 17.8274C86.4818 21.9545 88.3752 24.2261 91.3729 24.2261C94.3706 24.2261 96.2319 21.9226 96.2319 17.8274Z" fill="#0D0E1F"/>
  <path d="M104.058 0.775002H109.17V27.6493H104.058V0.775002Z" fill="#0D0E1F"/>
  <path d="M111.726 17.8276C111.726 11.8128 116.08 7.4298 121.665 7.4298C124.442 7.4298 126.809 8.35762 128.449 9.95725C130.311 11.8128 131.226 14.5323 131.226 17.4757C131.226 17.9876 131.226 18.4355 131.195 18.8834H116.774C116.901 21.9867 118.699 24.2902 121.792 24.2902C123.748 24.2902 125.042 23.3944 125.609 22.1467H130.879C130.091 25.346 126.209 28.1934 121.665 28.1934C115.576 28.1934 111.726 23.8744 111.726 17.7956V17.8276ZM121.603 11.013C119.141 11.013 117.216 12.7407 116.869 15.4601H126.114C125.925 12.6447 124.095 11.013 121.603 11.013Z" fill="#0D0E1F"/>
  <path d="M27.675 16.7932C30.7254 16.7932 33.1986 19.2663 33.1986 22.3168C33.1986 25.3494 30.7412 27.8067 27.7086 27.8067H1.75749V24.0505H27.6987C28.6614 24.0505 29.4423 23.2696 29.4423 22.3069V22.2911C29.4423 21.3283 28.6614 20.5474 27.6987 20.5474H4.82963C2.16276 20.5474 0 18.3847 0 15.7178C0 14.2963 0.628662 12.9481 1.71795 12.0327L13.3581 2.26873C15.6494 0.345178 18.9923 0.35111 21.2796 2.27862L33.2064 12.3669L30.7926 15.2453L18.7768 5.13923C17.9089 4.41172 16.6457 4.41172 15.7778 5.13923L4.13375 14.9112C3.89256 15.1128 3.75418 15.4114 3.75418 15.7257V15.7316C3.75418 16.3187 4.23062 16.7932 4.81579 16.7932H27.675Z" fill="#0D0E1F"/>
</svg>
